<svg width="142" height="47" viewBox="0 0 142 47" fill="none" xmlns="http://www.w3.org/2000/svg">
<path d="M141.746 0H0V47H141.746V0Z" fill="#0C46C6"/>
<path d="M33.5952 32.0794C31.5867 32.0794 30.584 31.0625 30.5869 29.0286C30.5886 28.737 30.6094 28.4459 30.6491 28.157C30.6891 27.8562 30.7513 27.5337 30.8313 27.1851L32.5421 19.3969H35.7904L34.2529 26.4834C34.1486 26.869 34.0919 27.2656 34.084 27.6645C34.084 28.7889 34.5684 29.3468 35.546 29.3468C35.954 29.3425 36.3571 29.2596 36.7324 29.1027C37.1667 28.9138 37.5708 28.6642 37.9322 28.3618C38.3663 28.0046 38.7437 27.586 39.052 27.1197L40.7405 19.4012H44.0155L42.087 28.1613C42.0697 28.2361 42.0563 28.3118 42.047 28.3879C42.0427 28.4547 42.0427 28.5217 42.047 28.5884C42.047 28.9197 42.2469 29.094 42.638 29.1071L42.047 31.8397L41.2782 31.9617C41.0797 31.9914 40.8792 32.0075 40.6783 32.0097C40.2094 32.0346 39.744 31.9174 39.3453 31.6741C39.1826 31.5587 39.0527 31.4044 38.9679 31.2259C38.8831 31.0474 38.8463 30.8506 38.8609 30.6542C38.8609 30.5758 38.8609 30.4886 38.8609 30.3927C38.8609 30.2969 38.8876 30.1748 38.9098 30.0266C38.932 29.8785 38.972 29.7041 39.0209 29.5167C38.3336 30.3209 37.4792 30.9717 36.5147 31.4256C35.6034 31.8542 34.6059 32.0776 33.5952 32.0794Z" fill="white"/>
<path d="M47.3428 19.2626H50.4551L47.8749 32.0793H44.7627L47.3428 19.2626ZM48.3648 14.1746H51.477L50.8267 17.4573H47.7144L48.3648 14.1746Z" fill="white"/>
<path d="M56.6531 32.0761C55.6565 32.1108 54.6706 31.8542 53.8081 31.3355C53.0484 30.8641 52.4388 30.1722 52.0545 29.3455C51.6646 28.4941 51.4667 27.5619 51.4759 26.6194C51.4746 25.6002 51.6714 24.5912 52.0545 23.6526C52.437 22.7006 52.9904 21.8326 53.6853 21.0946C54.3949 20.3358 55.2427 19.7304 56.1797 19.3136C57.1854 18.8694 58.2691 18.6466 59.3623 18.6593C60.5015 18.5925 61.6309 18.9115 62.58 19.568C63.3623 20.1619 63.9203 21.0199 64.1581 21.9942L60.8308 22.9938C60.6978 22.5454 60.4268 22.1545 60.0593 21.8806C59.6842 21.6154 59.2376 21.4802 58.7836 21.4944C58.2774 21.4959 57.7781 21.6171 57.3238 21.8488C56.8396 22.0943 56.4063 22.4354 56.0482 22.8529C55.6705 23.2968 55.3735 23.8079 55.1714 24.3613C54.9533 24.9483 54.8433 25.5725 54.847 26.2014C54.8379 26.739 54.9364 27.2728 55.1363 27.7689C55.3063 28.1983 55.5906 28.5686 55.9561 28.8366C56.3183 29.0898 56.7468 29.2214 57.1836 29.2137C57.5431 29.2144 57.8997 29.1466 58.2357 29.0138C58.5784 28.883 58.8994 28.6975 59.1869 28.4641C59.465 28.2445 59.7014 27.9734 59.884 27.6644L62.8255 28.664C62.3976 29.3341 61.8693 29.9292 61.2605 30.4268C59.9519 31.5066 58.3257 32.0887 56.6531 32.0761Z" fill="white"/>
<path d="M69.613 32.074C68.5313 32.1196 67.4583 31.8632 66.513 31.3334C65.7328 30.8666 65.1125 30.1724 64.7345 29.3432C64.3436 28.4789 64.1474 27.5388 64.1597 26.5897C64.1553 25.5548 64.3553 24.5293 64.748 23.5726C65.1322 22.6265 65.6929 21.7628 66.3999 21.028C67.1195 20.2837 67.9795 19.6906 68.9296 19.2832C69.9407 18.8569 71.0281 18.6435 72.1246 18.6562C73.2093 18.6089 74.2857 18.8653 75.2337 19.3968C76.0111 19.8609 76.631 20.5498 77.0122 21.3734C77.4058 22.2415 77.6022 23.1868 77.5869 24.1405C77.591 25.1749 77.3927 26.2 77.0031 27.1576C76.6157 28.103 76.0537 28.9664 75.3468 29.7022C74.628 30.4454 73.7698 31.0385 72.8216 31.447C71.806 31.874 70.7139 32.0874 69.613 32.074ZM70.1108 29.2251C70.6276 29.2239 71.1377 29.1075 71.6042 28.8843C72.0926 28.6471 72.5282 28.3132 72.8849 27.9028C73.273 27.4627 73.5795 26.9564 73.79 26.4079C74.0188 25.814 74.1325 25.1817 74.1249 24.5449C74.1357 23.9996 74.0388 23.4576 73.8398 22.9501C73.6645 22.514 73.3615 22.1416 72.9709 21.8823C72.5666 21.6219 72.0933 21.4904 71.6132 21.5051C71.1007 21.5054 70.5948 21.6219 70.1334 21.8459C69.6479 22.0878 69.2131 22.421 68.8527 22.8274C68.4615 23.2704 68.1547 23.7817 67.9476 24.3359C67.7216 24.9354 67.608 25.5716 67.6127 26.2125C67.6035 26.7489 67.7004 27.2817 67.8978 27.7801C68.0687 28.2122 68.3632 28.5837 68.7441 28.8479C69.1513 29.1093 69.6277 29.2407 70.1108 29.2251Z" fill="white"/>
<path d="M83.4944 32.0776C82.6585 32.1024 81.8353 31.8644 81.1364 31.3959C80.4756 30.9385 79.9495 30.3061 79.6147 29.5665C79.2462 28.7385 79.0636 27.837 79.0801 26.9279C79.0723 25.9156 79.2537 24.9111 79.6147 23.9682C79.9666 23.047 80.476 22.1968 81.1191 21.4571C81.7342 20.7461 82.4739 20.1585 83.3004 19.7244C84.1002 19.3047 84.9874 19.0875 85.8869 19.0912C86.6674 19.0692 87.4335 19.3086 88.0681 19.7728C88.6489 20.2023 89.0807 20.8091 89.301 21.5055L90.8227 14.1746H93.9997L91.1072 28.1064C91.1072 28.19 91.0727 28.2648 91.0598 28.3395C91.0433 28.4057 91.0346 28.4736 91.0339 28.5418C91.0339 28.8804 91.2236 29.0607 91.6029 29.0739L91.0339 31.8313L90.2882 31.9544C90.1041 31.9835 89.9183 31.9996 89.7321 32.0028C89.2693 32.0268 88.8105 31.9055 88.4173 31.6554C88.2576 31.5428 88.129 31.3902 88.0437 31.2123C87.9584 31.0345 87.9193 30.8372 87.9302 30.6395C87.9316 30.5512 87.9388 30.463 87.9517 30.3757C87.9517 30.2789 87.9862 30.1734 87.9991 30.0546C88.0121 29.9359 88.0379 29.804 88.0724 29.6588C87.4966 30.4159 86.7595 31.0294 85.917 31.4531C85.1671 31.8481 84.3382 32.0618 83.4944 32.0776ZM84.9169 29.3202C85.2108 29.3192 85.5024 29.2672 85.7791 29.1663C86.0919 29.0547 86.3913 28.9071 86.6714 28.7265C86.9684 28.5414 87.242 28.3199 87.4862 28.0669C87.7319 27.8152 87.9475 27.5348 88.1285 27.2313L88.7449 24.2409C88.7021 23.8006 88.5541 23.3778 88.3138 23.0095C88.0936 22.655 87.7992 22.3546 87.4517 22.13C87.1161 21.9232 86.7315 21.8137 86.3395 21.8133C85.829 21.8149 85.3274 21.9496 84.8824 22.2047C84.4067 22.4692 83.984 22.8228 83.6366 23.247C83.2724 23.6868 82.9812 24.1845 82.7745 24.7202C82.5654 25.2516 82.4571 25.8187 82.4555 26.3913C82.4501 26.8994 82.5546 27.4024 82.7615 27.8646C82.9516 28.2849 83.2495 28.645 83.6237 28.9068C84.003 29.1733 84.4521 29.3173 84.9126 29.3202H84.9169Z" fill="white"/>
<path d="M99.2513 32.0772C98.2696 32.1039 97.299 31.86 96.4415 31.3714C95.6619 30.916 95.0306 30.2366 94.6262 29.4177C94.2 28.5362 93.986 27.5635 94.0018 26.5806C94.0002 25.5405 94.2082 24.5112 94.6128 23.5567C95.0184 22.604 95.6016 21.741 96.33 21.0156C97.87 19.4792 99.9439 18.6292 102.097 18.6521C102.924 18.6344 103.747 18.7765 104.523 19.0711C105.16 19.3153 105.715 19.7423 106.12 20.3007C106.507 20.8805 106.704 21.571 106.682 22.2725C106.693 22.9161 106.525 23.5497 106.197 24.0995C105.87 24.6494 105.396 25.0929 104.831 25.3783C103.594 26.0888 101.742 26.444 99.2736 26.444C98.783 26.444 98.2523 26.4303 97.6814 26.403C97.106 26.403 96.4861 26.3347 95.8171 26.2664L96.2318 24.1624C96.8206 24.2125 97.3602 24.2535 97.8509 24.2763C98.3415 24.299 98.8232 24.3127 99.3004 24.3127C100.144 24.3332 100.988 24.2599 101.816 24.0941C102.31 24.0078 102.772 23.7876 103.154 23.4566C103.287 23.3325 103.393 23.1813 103.466 23.0126C103.538 22.8439 103.574 22.6616 103.573 22.4775C103.585 22.1908 103.498 21.909 103.328 21.6805C103.146 21.4718 102.914 21.3149 102.654 21.2251C102.325 21.1132 101.98 21.0593 101.633 21.0657C101.02 21.0613 100.416 21.2181 99.8802 21.5211C99.3395 21.8344 98.8674 22.2575 98.4931 22.7644C98.0972 23.3075 97.7955 23.9159 97.6011 24.5632C97.3841 25.2549 97.2757 25.9773 97.28 26.7035C97.272 27.2237 97.3692 27.7399 97.5654 28.22C97.7348 28.6478 98.0291 29.012 98.4084 29.2629C98.8475 29.5238 99.3502 29.6518 99.8579 29.6318C100.502 29.6383 101.138 29.4818 101.709 29.1764C102.279 28.8678 102.758 28.4086 103.096 27.8466L105.696 28.6754C105.249 29.3647 104.684 29.9662 104.028 30.4515C103.34 30.9708 102.579 31.3807 101.771 31.6674C100.96 31.9484 100.108 32.087 99.2513 32.0772Z" fill="white"/>
</svg>
