<svg width="23" height="23" viewBox="0 0 23 23" fill="none" xmlns="http://www.w3.org/2000/svg">
<g clip-path="url(#clip0)">
<path d="M0 11.0208C0 5.82556 0 3.22793 1.61396 1.61396C3.22793 0 5.82556 0 11.0208 0H11.9792C17.1744 0 19.7721 0 21.386 1.61396C23 3.22793 23 5.82556 23 11.0208V11.9792C23 17.1744 23 19.7721 21.386 21.386C19.7721 23 17.1744 23 11.9792 23H11.0208C5.82556 23 3.22793 23 1.61396 21.386C0 19.7721 0 17.1744 0 11.9792L0 11.0208Z" fill="#2787F5"/>
<path fill-rule="evenodd" clip-rule="evenodd" d="M6.22966 7.1875H4.55219C4.07291 7.1875 3.97705 7.41309 3.97705 7.66178C3.97705 8.10601 4.54575 10.3092 6.62502 13.223C8.0112 15.213 9.96419 16.2917 11.7414 16.2917C12.8077 16.2917 12.9396 16.0521 12.9396 15.6394V14.1354C12.9396 13.6562 13.0406 13.5606 13.3782 13.5606C13.627 13.5606 14.0535 13.685 15.0488 14.6444C16.1862 15.7815 16.3737 16.2917 17.0134 16.2917H18.6909C19.1702 16.2917 19.4098 16.0521 19.2716 15.5793C19.1203 15.1081 18.5773 14.4244 17.8567 13.6139C17.4657 13.152 16.8792 12.6545 16.7015 12.4057C16.4527 12.0859 16.5238 11.9438 16.7015 11.6595C16.7015 11.6595 18.7453 8.78116 18.9585 7.804C19.0651 7.4486 18.9585 7.1875 18.4512 7.1875H16.7738C16.3473 7.1875 16.1506 7.41309 16.0439 7.66178C16.0439 7.66178 15.1909 9.7406 13.9825 11.0909C13.5915 11.4818 13.4138 11.6062 13.2005 11.6062C13.0939 11.6062 12.9395 11.4818 12.9395 11.1265V7.804C12.9395 7.37754 12.8158 7.1875 12.4603 7.1875H9.82422C9.55771 7.1875 9.39738 7.3854 9.39738 7.57299C9.39738 7.97721 10.0016 8.07046 10.0639 9.20757V11.6773C10.0639 12.2188 9.96606 12.3169 9.75283 12.3169C9.18415 12.3169 7.80085 10.2288 6.98042 7.8395C6.81966 7.37509 6.65837 7.1875 6.22966 7.1875Z" fill="white"/>
</g>
<defs>
<clipPath id="clip0">
<rect width="23" height="23" fill="white"/>
</clipPath>
</defs>
</svg>
